<?xml version="1.0" encoding="UTF-8" standalone="no"?>
<!DOCTYPE svg PUBLIC "-//W3C//DTD SVG 1.1//EN" "http://www.w3.org/Graphics/SVG/1.1/DTD/svg11.dtd">
<svg width="100%" height="100%" viewBox="0 0 300 49" version="1.1" xmlns="http://www.w3.org/2000/svg" xmlns:xlink="http://www.w3.org/1999/xlink" xml:space="preserve" xmlns:serif="http://www.serif.com/" style="fill-rule:evenodd;clip-rule:evenodd;stroke-linejoin:round;stroke-miterlimit:2;">
    <g transform="matrix(0.436681,0,0,0.4375,0,0)">
        <path d="M95.145,16.573C85.05,6.479 71.159,0.282 55.768,0.282C40.376,0.282 26.385,6.479 16.291,16.573C6.196,26.667 0,40.659 0,56.05C0,71.441 6.196,85.333 16.291,95.427C26.385,105.521 40.277,111.718 55.668,111.718C71.059,111.718 84.951,105.521 95.045,95.427C105.139,85.333 111.335,71.441 111.335,56.05C111.335,40.659 105.239,26.667 95.145,16.573ZM93.246,93.528C83.651,103.123 70.359,109.119 55.668,109.119C40.976,109.119 27.684,103.223 18.089,93.528C8.495,83.834 2.598,70.641 2.598,56.05C2.598,41.359 8.595,28.066 18.189,18.472C27.784,8.877 41.076,2.881 55.768,2.881C70.459,2.881 83.751,8.877 93.346,18.472C102.94,28.066 108.937,41.359 108.937,56.05C108.837,70.641 102.94,83.934 93.246,93.528Z" style="fill:white;fill-rule:nonzero;"/>
    </g>
    <g transform="matrix(0.436681,0,0,0.4375,0,0)">
        <path d="M103.64,55.55C103.44,29.266 82.052,8.078 55.768,8.078C29.483,8.078 8.095,29.266 7.795,55.55L29.783,33.563L37.178,40.959L21.088,57.049L90.447,57.049L74.357,40.959L81.752,33.563L103.64,55.55ZM55.768,47.355L35.279,25.868L48.872,25.868L48.872,15.274C48.872,12.575 51.97,10.277 55.768,10.277C59.565,10.277 62.664,12.475 62.664,15.274L62.664,25.868L76.256,25.868L55.768,47.355Z" style="fill:white;fill-rule:nonzero;"/>
    </g>
    <g transform="matrix(0.436681,0,0,0.4375,0,0)">
        <path d="M61.664,83.034C60.565,82.335 59.166,81.735 57.566,81.135C56.267,80.736 55.268,80.236 54.468,79.836C53.669,79.436 53.069,79.037 52.669,78.537C52.27,78.037 52.07,77.537 52.07,76.838C52.07,76.338 52.27,75.838 52.569,75.339C52.869,74.839 53.369,74.439 54.069,74.239C54.768,73.94 55.668,73.74 56.767,73.74C57.666,73.74 58.466,73.84 59.265,73.94C59.965,74.039 60.665,74.239 61.164,74.439C61.764,74.639 62.164,74.839 62.564,74.939L63.763,71.241C63.063,70.841 62.064,70.542 60.965,70.342C59.965,70.142 58.866,70.042 57.666,69.942L57.666,66.044L54.268,66.044L54.268,70.142C53.769,70.242 53.169,70.342 52.669,70.542C51.37,70.941 50.371,71.441 49.471,72.141C48.572,72.84 47.872,73.54 47.472,74.439C46.973,75.339 46.773,76.338 46.773,77.338C46.773,78.537 47.073,79.636 47.772,80.536C48.372,81.435 49.271,82.235 50.471,82.934C51.67,83.634 52.969,84.234 54.668,84.733C55.867,85.133 56.867,85.533 57.566,85.933C58.266,86.332 58.866,86.832 59.166,87.332C59.465,87.831 59.665,88.431 59.665,89.031C59.665,89.73 59.465,90.33 59.066,90.83C58.666,91.329 58.066,91.729 57.267,92.029C56.467,92.329 55.568,92.429 54.468,92.429C53.569,92.429 52.669,92.329 51.87,92.229C51.07,92.029 50.271,91.829 49.471,91.629C48.772,91.429 48.072,91.13 47.472,90.83L46.273,94.727C46.773,95.027 47.472,95.327 48.272,95.527C49.071,95.727 49.971,95.927 50.97,96.127C51.97,96.227 52.969,96.327 53.969,96.327L54.168,96.327L54.168,100.324L57.566,100.324L57.566,96.027C57.966,95.927 58.366,95.827 58.766,95.727C60.165,95.327 61.264,94.727 62.164,94.028C63.063,93.328 63.763,92.529 64.163,91.529C64.562,90.63 64.862,89.63 64.862,88.531C64.862,87.332 64.562,86.232 64.063,85.333C63.563,84.533 62.763,83.734 61.664,83.034Z" style="fill:white;fill-rule:nonzero;"/>
    </g>
    <g transform="matrix(0.436681,0,0,0.4375,0,0)">
        <path d="M131.723,57.449C131.723,58.648 131.923,59.748 132.223,60.847C132.523,61.947 133.023,62.846 133.722,63.745C134.422,64.545 135.221,65.245 136.221,65.644C137.22,66.144 138.419,66.344 139.819,66.344C141.717,66.344 143.317,65.944 144.516,65.045C145.715,64.245 146.615,62.946 147.114,61.247L153.411,61.247C153.111,62.846 152.411,64.345 151.612,65.644C150.712,66.944 149.713,68.043 148.514,68.843C147.314,69.742 145.915,70.342 144.516,70.841C143.017,71.241 141.418,71.541 139.819,71.541C137.42,71.541 135.321,71.141 133.522,70.342C131.723,69.542 130.124,68.443 128.925,67.044C127.626,65.644 126.726,63.945 126.027,62.046C125.427,60.148 125.027,57.949 125.027,55.65C125.027,53.551 125.327,51.453 126.027,49.554C126.726,47.655 127.626,45.956 128.925,44.457C130.224,42.958 131.723,41.858 133.522,40.959C135.321,40.059 137.32,39.66 139.619,39.66C142.017,39.66 144.116,40.159 146.015,41.159C147.914,42.158 149.413,43.457 150.712,45.056C151.912,46.655 152.811,48.554 153.411,50.653C154.01,52.752 154.11,54.951 153.81,57.149L131.723,57.149L131.723,57.449ZM147.114,53.152C147.014,52.152 146.815,51.053 146.415,50.153C146.015,49.154 145.515,48.354 144.916,47.655C144.316,46.955 143.516,46.356 142.617,45.956C141.717,45.556 140.718,45.256 139.519,45.256C138.319,45.256 137.32,45.456 136.321,45.856C135.321,46.256 134.522,46.855 133.922,47.555C133.222,48.255 132.723,49.154 132.323,50.053C131.923,51.053 131.723,52.052 131.623,53.152L147.114,53.152Z" style="fill:white;fill-rule:nonzero;"/>
    </g>
    <g transform="matrix(0.436681,0,0,0.4375,0,0)">
        <path d="M183.993,64.145C183.993,64.945 184.093,65.544 184.293,65.844C184.493,66.144 184.892,66.344 185.592,66.344L186.292,66.344C186.591,66.344 186.891,66.344 187.191,66.244L187.191,70.841C186.991,70.941 186.691,71.041 186.292,71.141C185.892,71.241 185.592,71.341 185.192,71.441C184.792,71.541 184.393,71.541 183.993,71.641C183.593,71.741 183.293,71.741 182.993,71.741C181.594,71.741 180.495,71.441 179.595,70.941C178.696,70.442 178.096,69.442 177.896,68.043C176.597,69.342 174.998,70.242 172.999,70.841C171.1,71.441 169.201,71.741 167.403,71.741C166.003,71.741 164.704,71.541 163.505,71.141C162.305,70.741 161.206,70.242 160.207,69.542C159.207,68.843 158.508,67.943 157.908,66.844C157.308,65.744 157.109,64.445 157.109,62.946C157.109,61.047 157.408,59.548 158.108,58.449C158.808,57.249 159.707,56.35 160.806,55.75C161.906,55.051 163.105,54.651 164.504,54.351C165.903,54.051 167.303,53.851 168.702,53.651C169.901,53.451 171,53.252 172.1,53.152C173.199,53.052 174.099,52.852 174.998,52.652C175.798,52.452 176.497,52.052 176.997,51.553C177.497,51.053 177.697,50.353 177.697,49.354C177.697,48.454 177.497,47.755 177.097,47.255C176.697,46.755 176.197,46.256 175.598,45.956C174.998,45.656 174.299,45.456 173.599,45.356C172.899,45.256 172.2,45.256 171.5,45.256C169.601,45.256 168.102,45.656 166.903,46.456C165.704,47.255 165.004,48.454 164.904,50.053L158.308,50.053C158.408,48.155 158.907,46.555 159.707,45.256C160.507,43.957 161.606,42.958 162.805,42.158C164.104,41.359 165.504,40.859 167.103,40.559C168.702,40.259 170.301,40.059 172,40.059C173.499,40.059 174.898,40.259 176.397,40.559C177.796,40.859 179.096,41.359 180.295,42.058C181.394,42.758 182.394,43.657 183.093,44.757C183.793,45.856 184.093,47.255 184.093,48.754L184.093,64.145L183.993,64.145ZM177.397,55.75C176.397,56.45 175.198,56.85 173.699,56.949C172.2,57.049 170.801,57.249 169.301,57.549C168.602,57.649 167.902,57.849 167.303,58.049C166.603,58.249 166.103,58.549 165.604,58.948C165.104,59.348 164.704,59.848 164.404,60.447C164.104,61.047 164.005,61.747 164.005,62.646C164.005,63.346 164.204,64.045 164.604,64.545C165.004,65.045 165.504,65.445 166.103,65.744C166.703,66.044 167.403,66.244 168.102,66.344C168.802,66.444 169.501,66.544 170.001,66.544C170.701,66.544 171.5,66.444 172.4,66.244C173.299,66.044 174.099,65.744 174.798,65.245C175.598,64.745 176.197,64.145 176.697,63.446C177.197,62.746 177.497,61.847 177.497,60.847L177.497,55.75L177.397,55.75Z" style="fill:white;fill-rule:nonzero;"/>
    </g>
    <g transform="matrix(0.436681,0,0,0.4375,0,0)">
        <path d="M196.186,61.147C196.386,63.046 197.085,64.445 198.384,65.245C199.684,66.044 201.183,66.444 202.982,66.444C203.581,66.444 204.281,66.444 205.081,66.344C205.88,66.244 206.58,66.044 207.279,65.744C207.979,65.445 208.579,65.045 208.978,64.545C209.378,64.045 209.578,63.346 209.578,62.446C209.578,61.547 209.278,60.847 208.678,60.347C208.079,59.848 207.379,59.348 206.48,59.048C205.58,58.748 204.581,58.449 203.382,58.249C202.182,58.049 201.083,57.749 199.884,57.449C198.684,57.149 197.485,56.85 196.286,56.45C195.186,56.05 194.087,55.55 193.188,54.851C192.288,54.151 191.588,53.352 190.989,52.352C190.489,51.353 190.189,50.053 190.189,48.554C190.189,46.955 190.589,45.556 191.389,44.457C192.188,43.357 193.188,42.458 194.387,41.758C195.586,41.059 196.985,40.559 198.484,40.359C199.984,40.059 201.383,39.959 202.782,39.959C204.381,39.959 205.78,40.159 207.279,40.459C208.678,40.759 209.978,41.359 211.077,42.058C212.176,42.758 213.176,43.757 213.975,44.956C214.775,46.156 215.175,47.555 215.375,49.254L208.479,49.254C208.179,47.655 207.479,46.555 206.28,46.056C205.181,45.556 203.781,45.256 202.382,45.256C201.882,45.256 201.383,45.256 200.683,45.356C200.084,45.456 199.484,45.556 198.884,45.756C198.285,45.956 197.885,46.256 197.485,46.655C197.085,47.055 196.885,47.555 196.885,48.255C196.885,49.054 197.185,49.754 197.685,50.253C198.285,50.753 198.984,51.153 199.884,51.553C200.783,51.852 201.783,52.152 202.982,52.352C204.181,52.552 205.38,52.852 206.58,53.152C207.779,53.451 208.978,53.751 210.078,54.151C211.277,54.551 212.276,55.051 213.176,55.75C214.075,56.45 214.775,57.249 215.375,58.249C215.974,59.248 216.174,60.547 216.174,61.947C216.174,63.745 215.774,65.245 214.975,66.444C214.175,67.643 213.076,68.743 211.777,69.442C210.477,70.242 209.078,70.741 207.479,71.141C205.88,71.441 204.281,71.641 202.782,71.641C200.883,71.641 199.084,71.441 197.485,71.041C195.886,70.641 194.487,69.942 193.287,69.142C192.088,68.243 191.189,67.144 190.489,65.844C189.789,64.545 189.49,63.046 189.39,61.247L196.186,61.247L196.186,61.147Z" style="fill:white;fill-rule:nonzero;"/>
    </g>
    <g transform="matrix(0.436681,0,0,0.4375,0,0)">
        <path d="M217.973,40.759L225.269,40.759L233.164,63.246L233.264,63.246L240.86,40.759L247.756,40.759L236.063,72.44C235.563,73.84 234.963,75.139 234.463,76.338C233.964,77.537 233.264,78.637 232.565,79.636C231.765,80.636 230.866,81.335 229.766,81.935C228.667,82.535 227.168,82.734 225.469,82.734C223.87,82.734 222.371,82.634 220.871,82.435L220.871,76.838C221.371,76.938 221.971,77.038 222.47,77.138C222.97,77.238 223.47,77.238 224.07,77.238C224.869,77.238 225.469,77.138 225.968,76.938C226.468,76.738 226.868,76.438 227.268,76.138C227.568,75.739 227.867,75.339 228.067,74.839C228.267,74.339 228.467,73.74 228.667,73.14L229.466,70.841L217.973,40.759Z" style="fill:white;fill-rule:nonzero;"/>
    </g>
    <g transform="matrix(0.436681,0,0,0.4375,0,0)">
        <path d="M274.54,70.841L274.54,65.145L274.44,65.145C274.04,66.144 273.441,67.044 272.741,67.843C271.942,68.643 271.142,69.342 270.143,69.942C269.143,70.542 268.144,70.941 267.045,71.241C265.945,71.541 264.846,71.741 263.746,71.741C261.448,71.741 259.449,71.341 257.75,70.442C256.051,69.642 254.652,68.443 253.552,67.044C252.453,65.544 251.554,63.945 251.054,61.947C250.554,60.048 250.254,58.049 250.254,55.85C250.254,53.751 250.554,51.653 251.054,49.754C251.554,47.855 252.453,46.156 253.552,44.657C254.652,43.157 256.051,42.058 257.75,41.159C259.449,40.259 261.448,39.859 263.746,39.859C264.846,39.859 265.945,39.959 267.045,40.259C268.144,40.559 269.143,40.959 270.043,41.558C270.942,42.158 271.842,42.858 272.541,43.657C273.241,44.457 273.841,45.456 274.24,46.555L274.34,46.555L274.34,29.266L278.038,29.266L278.038,70.741L274.54,70.741L274.54,70.841ZM254.452,60.447C254.852,61.947 255.451,63.346 256.151,64.545C256.95,65.744 257.95,66.744 259.249,67.443C260.448,68.243 261.947,68.543 263.746,68.543C265.645,68.543 267.344,68.143 268.644,67.443C269.943,66.644 271.042,65.744 271.942,64.545C272.741,63.346 273.341,61.947 273.741,60.447C274.14,58.948 274.34,57.349 274.34,55.85C274.34,54.251 274.14,52.752 273.741,51.253C273.341,49.754 272.741,48.354 271.942,47.155C271.142,45.956 270.043,44.956 268.644,44.257C267.344,43.457 265.645,43.157 263.746,43.157C262.047,43.157 260.548,43.557 259.249,44.257C258.05,45.056 256.95,45.956 256.151,47.155C255.351,48.354 254.752,49.754 254.452,51.253C254.052,52.752 253.852,54.351 253.852,55.85C253.852,57.349 254.052,58.848 254.452,60.447Z" style="fill:white;fill-rule:nonzero;"/>
    </g>
    <g transform="matrix(0.436681,0,0,0.4375,0,0)">
        <path d="M288.632,29.266L288.632,35.162L284.934,35.162L284.934,29.266L288.632,29.266ZM288.632,40.759L288.632,70.741L284.934,70.741L284.934,40.759L288.632,40.759Z" style="fill:white;fill-rule:nonzero;"/>
    </g>
    <g transform="matrix(0.436681,0,0,0.4375,0,0)">
        <path d="M320.314,74.339C319.814,76.138 319.014,77.637 318.015,78.837C317.015,80.036 315.616,81.035 313.917,81.735C312.218,82.435 310.119,82.734 307.721,82.734C306.222,82.734 304.723,82.535 303.323,82.235C301.924,81.935 300.625,81.335 299.426,80.636C298.326,79.936 297.327,78.937 296.527,77.837C295.728,76.738 295.328,75.339 295.228,73.74L298.926,73.74C299.126,74.839 299.526,75.838 300.025,76.538C300.625,77.338 301.225,77.937 302.024,78.337C302.824,78.837 303.723,79.137 304.623,79.336C305.622,79.536 306.621,79.636 307.621,79.636C311.019,79.636 313.517,78.637 315.017,76.738C316.516,74.839 317.315,72.041 317.315,68.343L317.315,64.245L317.215,64.245C316.316,66.144 315.117,67.643 313.418,68.743C311.818,69.842 309.82,70.442 307.621,70.442C305.222,70.442 303.124,70.042 301.424,69.242C299.725,68.443 298.326,67.343 297.227,65.944C296.128,64.545 295.328,62.946 294.828,61.047C294.329,59.148 294.029,57.149 294.029,55.051C294.029,52.952 294.329,51.053 294.928,49.254C295.528,47.455 296.427,45.756 297.527,44.457C298.626,43.058 300.125,41.958 301.724,41.159C303.423,40.359 305.322,39.959 307.521,39.959C308.62,39.959 309.72,40.159 310.719,40.459C311.719,40.759 312.618,41.159 313.418,41.758C314.217,42.358 314.917,42.958 315.616,43.657C316.216,44.357 316.716,45.156 317.115,45.956L317.215,45.956L317.215,40.759L320.913,40.759L320.913,68.343C321.013,70.542 320.713,72.54 320.314,74.339ZM311.818,66.344C313.018,65.644 314.017,64.745 314.817,63.646C315.616,62.546 316.216,61.247 316.616,59.848C317.015,58.449 317.215,56.949 317.215,55.45C317.215,53.951 317.015,52.552 316.716,51.053C316.416,49.554 315.816,48.255 315.017,47.055C314.217,45.856 313.218,44.856 312.018,44.157C310.819,43.457 309.32,43.058 307.521,43.058C305.822,43.058 304.323,43.457 303.024,44.157C301.824,44.856 300.725,45.856 299.925,46.955C299.126,48.055 298.526,49.454 298.126,50.953C297.727,52.452 297.527,53.951 297.527,55.55C297.527,57.049 297.727,58.549 298.126,59.948C298.526,61.347 299.126,62.646 299.925,63.745C300.725,64.845 301.724,65.744 303.024,66.444C304.223,67.144 305.722,67.443 307.421,67.443C309.32,67.343 310.619,67.044 311.818,66.344Z" style="fill:white;fill-rule:nonzero;"/>
    </g>
    <g transform="matrix(0.436681,0,0,0.4375,0,0)">
        <path d="M331.707,29.266L331.707,35.162L328.009,35.162L328.009,29.266L331.707,29.266ZM331.707,40.759L331.707,70.741L328.009,70.741L328.009,40.759L331.707,40.759Z" style="fill:white;fill-rule:nonzero;"/>
    </g>
    <g transform="matrix(0.436681,0,0,0.4375,0,0)">
        <path d="M350.696,40.759L350.696,43.857L344.599,43.857L344.599,64.045C344.599,65.245 344.799,66.144 345.099,66.844C345.399,67.543 346.298,67.943 347.598,67.943C348.597,67.943 349.696,67.843 350.696,67.743L350.696,70.841C350.196,70.841 349.596,70.841 349.097,70.941C348.597,70.941 347.997,71.041 347.498,71.041C345.099,71.041 343.3,70.542 342.401,69.642C341.401,68.743 341.001,66.944 341.001,64.345L341.001,43.857L335.804,43.857L335.804,40.759L341.001,40.759L341.001,31.764L344.699,31.764L344.699,40.759L350.696,40.759Z" style="fill:white;fill-rule:nonzero;"/>
    </g>
    <g transform="matrix(0.436681,0,0,0.4375,0,0)">
        <path d="M356.692,45.456C357.292,44.157 358.191,43.157 359.191,42.358C360.29,41.558 361.49,40.959 362.989,40.559C364.388,40.159 365.987,39.959 367.786,39.959C369.085,39.959 370.384,40.059 371.784,40.359C373.083,40.659 374.282,41.059 375.281,41.758C376.281,42.458 377.18,43.457 377.88,44.657C378.58,45.956 378.879,47.555 378.879,49.554L378.879,65.445C378.879,66.944 379.579,67.643 381.078,67.643C381.478,67.643 381.878,67.543 382.277,67.443L382.277,70.542C381.878,70.641 381.478,70.641 381.178,70.741C380.878,70.741 380.478,70.841 379.879,70.841C378.979,70.841 378.18,70.741 377.68,70.442C377.08,70.142 376.681,69.842 376.381,69.342C376.081,68.843 375.881,68.343 375.781,67.643C375.681,67.044 375.681,66.344 375.681,65.544L375.581,65.544C374.882,66.544 374.282,67.343 373.582,68.143C372.883,68.942 372.183,69.542 371.284,70.042C370.484,70.542 369.485,70.941 368.386,71.241C367.286,71.541 366.087,71.641 364.588,71.641C363.189,71.641 361.889,71.441 360.69,71.141C359.491,70.841 358.391,70.242 357.492,69.542C356.592,68.843 355.893,67.943 355.293,66.844C354.793,65.744 354.494,64.445 354.494,62.946C354.494,60.847 354.993,59.248 355.893,58.049C356.792,56.85 358.092,55.95 359.591,55.35C361.09,54.751 362.889,54.251 364.788,54.051C366.686,53.751 368.685,53.551 370.584,53.352C371.384,53.252 372.083,53.152 372.583,53.052C373.183,52.952 373.682,52.752 374.082,52.452C374.482,52.152 374.782,51.752 374.982,51.253C375.182,50.753 375.281,50.053 375.281,49.254C375.281,48.055 375.082,46.955 374.682,46.156C374.282,45.356 373.682,44.757 372.983,44.257C372.283,43.757 371.384,43.457 370.484,43.257C369.485,43.058 368.485,42.958 367.386,42.958C365.087,42.958 363.189,43.557 361.689,44.657C360.19,45.756 359.491,47.555 359.391,49.954L355.593,49.954C355.693,48.255 356.093,46.755 356.692,45.456ZM374.982,54.451C374.782,54.851 374.282,55.15 373.682,55.35C372.983,55.55 372.483,55.65 371.983,55.75C370.384,56.05 368.785,56.25 367.186,56.45C365.587,56.65 363.988,56.949 362.689,57.449C361.29,57.849 360.19,58.449 359.391,59.248C358.491,60.048 358.092,61.147 358.092,62.646C358.092,63.546 358.291,64.445 358.691,65.145C359.091,65.844 359.591,66.444 360.19,67.044C360.79,67.543 361.49,67.943 362.389,68.243C363.189,68.543 363.988,68.643 364.888,68.643C366.287,68.643 367.586,68.443 368.885,68.043C370.184,67.643 371.284,67.044 372.183,66.144C373.083,65.345 373.882,64.345 374.482,63.146C375.082,61.947 375.281,60.647 375.281,59.148L375.281,54.351L374.982,54.351L374.982,54.451Z" style="fill:white;fill-rule:nonzero;"/>
    </g>
    <g transform="matrix(0.436681,0,0,0.4375,0,0)">
        <rect x="386.175" y="29.266" width="3.698" height="41.476" style="fill:white;fill-rule:nonzero;"/>
    </g>
    <g transform="matrix(0.436681,0,0,0.4375,0,0)">
        <path d="M425.152,70.841L418.856,70.841L418.856,66.744L418.756,66.744C417.857,68.443 416.557,69.742 414.858,70.542C413.159,71.341 411.36,71.641 409.462,71.641C407.063,71.641 405.064,71.241 403.265,70.342C401.466,69.542 400.067,68.343 398.868,66.944C397.668,65.544 396.869,63.845 396.269,61.847C395.67,59.848 395.37,57.749 395.37,55.55C395.37,52.852 395.77,50.453 396.469,48.554C397.169,46.555 398.168,44.956 399.367,43.657C400.567,42.358 401.966,41.458 403.565,40.859C405.164,40.259 406.763,39.959 408.362,39.959C409.262,39.959 410.261,40.059 411.261,40.259C412.26,40.459 413.159,40.759 414.059,41.059C414.958,41.458 415.758,41.958 416.557,42.558C417.357,43.157 417.957,43.857 418.456,44.657L418.556,44.657L418.556,29.266L425.152,29.266L425.152,70.841ZM402.066,56.05C402.066,57.349 402.266,58.549 402.566,59.848C402.865,61.047 403.365,62.146 404.065,63.146C404.764,64.145 405.564,64.845 406.663,65.445C407.663,66.044 408.962,66.344 410.361,66.344C411.86,66.344 413.059,66.044 414.159,65.445C415.258,64.845 416.058,64.045 416.757,63.046C417.457,62.046 417.957,60.947 418.256,59.648C418.556,58.349 418.756,57.049 418.756,55.75C418.756,52.452 418.057,49.854 416.557,47.955C415.058,46.056 413.059,45.156 410.461,45.156C408.862,45.156 407.563,45.456 406.563,46.156C405.464,46.755 404.664,47.655 403.965,48.654C403.265,49.654 402.765,50.853 402.466,52.152C402.166,53.451 402.066,54.751 402.066,56.05Z" style="fill:white;fill-rule:nonzero;"/>
    </g>
    <g transform="matrix(0.436681,0,0,0.4375,0,0)">
        <path d="M446.14,71.641C443.742,71.641 441.643,71.241 439.744,70.442C437.845,69.642 436.246,68.543 434.947,67.144C433.648,65.744 432.648,64.045 431.949,62.146C431.249,60.248 430.949,58.049 430.949,55.75C430.949,53.451 431.249,51.353 431.949,49.454C432.648,47.555 433.648,45.856 434.947,44.457C436.246,43.058 437.845,41.958 439.744,41.159C441.643,40.359 443.742,39.959 446.14,39.959C448.539,39.959 450.638,40.359 452.537,41.159C454.435,41.958 456.034,43.058 457.334,44.457C458.633,45.856 459.632,47.555 460.332,49.454C461.032,51.353 461.331,53.551 461.331,55.75C461.331,58.049 461.032,60.248 460.332,62.146C459.632,64.045 458.633,65.744 457.334,67.144C456.034,68.543 454.435,69.642 452.537,70.442C450.738,71.241 448.539,71.641 446.14,71.641ZM446.14,66.344C447.639,66.344 448.939,66.044 449.938,65.445C451.037,64.845 451.937,64.045 452.636,63.046C453.336,62.046 453.836,60.947 454.136,59.648C454.435,58.349 454.635,57.049 454.635,55.75C454.635,54.451 454.435,53.152 454.136,51.952C453.836,50.653 453.336,49.554 452.636,48.554C451.937,47.555 451.037,46.755 449.938,46.156C448.839,45.556 447.539,45.256 446.14,45.256C444.641,45.256 443.342,45.556 442.342,46.156C441.243,46.755 440.344,47.555 439.644,48.554C438.944,49.554 438.445,50.653 438.145,51.952C437.845,53.252 437.645,54.551 437.645,55.75C437.645,57.049 437.845,58.349 438.145,59.648C438.445,60.947 438.944,62.046 439.644,63.046C440.344,64.045 441.243,64.845 442.342,65.445C443.442,66.044 444.741,66.344 446.14,66.344Z" style="fill:white;fill-rule:nonzero;"/>
    </g>
    <g transform="matrix(0.436681,0,0,0.4375,0,0)">
        <path d="M464.13,40.759L471.126,40.759L477.022,63.246L477.122,63.246L482.719,40.759L489.415,40.759L494.812,63.246L494.912,63.246L501.008,40.759L507.704,40.759L498.31,70.841L491.514,70.841L485.917,48.554L485.817,48.554L480.32,70.841L473.324,70.841L464.13,40.759Z" style="fill:white;fill-rule:nonzero;"/>
    </g>
    <g transform="matrix(0.436681,0,0,0.4375,0,0)">
        <path d="M512.102,40.759L518.398,40.759L518.398,45.156L518.498,45.256C519.498,43.557 520.797,42.258 522.496,41.359C524.095,40.459 525.894,39.959 527.893,39.959C531.191,39.959 533.789,40.859 535.688,42.558C537.587,44.257 538.586,46.855 538.586,50.253L538.586,70.941L531.99,70.941L531.99,51.952C531.89,49.554 531.391,47.855 530.491,46.855C529.592,45.756 528.093,45.256 526.094,45.256C524.994,45.256 523.995,45.456 523.095,45.856C522.196,46.256 521.496,46.855 520.797,47.555C520.197,48.255 519.697,49.154 519.298,50.053C518.998,51.053 518.798,52.052 518.798,53.152L518.798,70.841L512.202,70.841L512.202,40.759L512.102,40.759Z" style="fill:white;fill-rule:nonzero;"/>
    </g>
    <g transform="matrix(0.436681,0,0,0.4375,0,0)">
        <rect x="545.682" y="29.266" width="6.596" height="41.476" style="fill:white;fill-rule:nonzero;"/>
    </g>
    <g transform="matrix(0.436681,0,0,0.4375,0,0)">
        <path d="M573.266,71.641C570.868,71.641 568.769,71.241 566.87,70.442C564.971,69.642 563.372,68.543 562.073,67.144C560.773,65.744 559.774,64.045 559.074,62.146C558.375,60.248 558.075,58.049 558.075,55.75C558.075,53.451 558.375,51.353 559.074,49.454C559.774,47.555 560.773,45.856 562.073,44.457C563.372,43.058 564.971,41.958 566.87,41.159C568.769,40.359 570.868,39.959 573.266,39.959C575.665,39.959 577.764,40.359 579.662,41.159C581.561,41.958 583.16,43.058 584.46,44.457C585.759,45.856 586.758,47.555 587.458,49.454C588.158,51.353 588.457,53.551 588.457,55.75C588.457,58.049 588.158,60.248 587.458,62.146C586.758,64.045 585.759,65.744 584.46,67.144C583.16,68.543 581.561,69.642 579.662,70.442C577.864,71.241 575.665,71.641 573.266,71.641ZM573.266,66.344C574.765,66.344 576.065,66.044 577.064,65.445C578.163,64.845 579.063,64.045 579.762,63.046C580.462,62.046 580.962,60.947 581.262,59.648C581.561,58.349 581.761,57.049 581.761,55.75C581.761,54.451 581.561,53.152 581.262,51.952C580.962,50.653 580.462,49.554 579.762,48.554C579.063,47.555 578.163,46.755 577.064,46.156C575.965,45.556 574.665,45.256 573.266,45.256C571.767,45.256 570.468,45.556 569.468,46.156C568.369,46.755 567.47,47.555 566.77,48.554C566.07,49.554 565.571,50.653 565.271,51.952C564.971,53.252 564.771,54.551 564.771,55.75C564.771,57.049 564.971,58.349 565.271,59.648C565.571,60.947 566.07,62.046 566.77,63.046C567.47,64.045 568.369,64.845 569.468,65.445C570.568,66.044 571.767,66.344 573.266,66.344Z" style="fill:white;fill-rule:nonzero;"/>
    </g>
    <g transform="matrix(0.436681,0,0,0.4375,0,0)">
        <path d="M619.14,64.145C619.14,64.945 619.239,65.544 619.439,65.844C619.639,66.144 620.039,66.344 620.739,66.344L621.438,66.344C621.738,66.344 622.038,66.344 622.338,66.244L622.338,70.841C622.138,70.941 621.838,71.041 621.438,71.141C621.038,71.241 620.739,71.341 620.339,71.441C619.939,71.541 619.539,71.541 619.14,71.641C618.74,71.741 618.44,71.741 618.14,71.741C616.741,71.741 615.642,71.441 614.742,70.941C613.843,70.442 613.243,69.442 613.043,68.043C611.744,69.342 610.145,70.242 608.146,70.841C606.247,71.441 604.348,71.741 602.549,71.741C601.15,71.741 599.851,71.541 598.651,71.141C597.452,70.741 596.353,70.242 595.353,69.542C594.354,68.843 593.654,67.943 593.055,66.844C592.455,65.744 592.255,64.445 592.255,62.946C592.255,61.047 592.555,59.548 593.255,58.449C593.954,57.249 594.854,56.35 595.953,55.75C597.052,55.051 598.252,54.651 599.651,54.351C601.05,54.051 602.449,53.851 603.848,53.651C605.048,53.451 606.147,53.252 607.246,53.152C608.346,53.052 609.245,52.852 610.145,52.652C610.944,52.452 611.644,52.052 612.144,51.553C612.643,51.053 612.843,50.353 612.843,49.354C612.843,48.454 612.643,47.755 612.244,47.255C611.844,46.755 611.344,46.256 610.744,45.956C610.145,45.656 609.445,45.456 608.746,45.356C608.046,45.256 607.346,45.256 606.647,45.256C604.748,45.256 603.249,45.656 602.049,46.456C600.85,47.255 600.151,48.454 600.051,50.053L593.454,50.053C593.554,48.155 594.054,46.555 594.854,45.256C595.653,43.957 596.753,42.958 597.952,42.158C599.251,41.359 600.65,40.859 602.249,40.559C603.848,40.259 605.447,40.059 607.146,40.059C608.646,40.059 610.045,40.259 611.544,40.559C612.943,40.859 614.242,41.359 615.442,42.058C616.541,42.758 617.54,43.657 618.24,44.757C618.94,45.856 619.239,47.255 619.239,48.754L619.239,64.145L619.14,64.145ZM612.543,55.75C611.544,56.45 610.345,56.85 608.846,56.949C607.346,57.049 605.947,57.249 604.448,57.549C603.748,57.649 603.049,57.849 602.449,58.049C601.75,58.249 601.25,58.549 600.75,58.948C600.251,59.348 599.851,59.848 599.551,60.447C599.251,61.047 599.151,61.747 599.151,62.646C599.151,63.346 599.351,64.045 599.751,64.545C600.151,65.045 600.65,65.445 601.25,65.744C601.85,66.044 602.549,66.244 603.249,66.344C603.948,66.444 604.648,66.544 605.148,66.544C605.847,66.544 606.647,66.444 607.546,66.244C608.446,66.044 609.245,65.744 609.945,65.245C610.744,64.745 611.344,64.145 611.844,63.446C612.343,62.746 612.643,61.847 612.643,60.847L612.643,55.75L612.543,55.75Z" style="fill:white;fill-rule:nonzero;"/>
    </g>
    <g transform="matrix(0.436681,0,0,0.4375,0,0)">
        <path d="M654.619,70.841L648.323,70.841L648.323,66.744L648.223,66.744C647.323,68.443 646.024,69.742 644.325,70.542C642.626,71.341 640.827,71.641 638.928,71.641C636.529,71.641 634.531,71.241 632.732,70.342C630.933,69.542 629.533,68.343 628.334,66.944C627.135,65.544 626.335,63.845 625.736,61.847C625.136,59.848 624.836,57.749 624.836,55.55C624.836,52.852 625.236,50.453 625.936,48.554C626.635,46.555 627.635,44.956 628.834,43.657C630.033,42.358 631.432,41.458 633.031,40.859C634.63,40.259 636.23,39.959 637.829,39.959C638.728,39.959 639.728,40.059 640.727,40.259C641.726,40.459 642.626,40.759 643.525,41.059C644.425,41.458 645.224,41.958 646.024,42.558C646.823,43.157 647.423,43.857 647.923,44.657L648.023,44.657L648.023,29.266L654.619,29.266L654.619,70.841ZM631.532,56.05C631.532,57.349 631.732,58.549 632.032,59.848C632.332,61.047 632.832,62.146 633.531,63.146C634.231,64.145 635.03,64.845 636.13,65.445C637.129,66.044 638.428,66.344 639.827,66.344C641.327,66.344 642.526,66.044 643.625,65.445C644.725,64.845 645.524,64.045 646.224,63.046C646.923,62.046 647.423,60.947 647.723,59.648C648.023,58.349 648.223,57.049 648.223,55.75C648.223,52.452 647.523,49.854 646.024,47.955C644.525,46.056 642.526,45.156 639.927,45.156C638.328,45.156 637.029,45.456 636.03,46.156C634.93,46.755 634.131,47.655 633.431,48.654C632.732,49.654 632.232,50.853 631.932,52.152C631.632,53.451 631.532,54.751 631.532,56.05Z" style="fill:white;fill-rule:nonzero;"/>
    </g>
    <g transform="matrix(0.436681,0,0,0.4375,0,0)">
        <path d="M666.812,61.147C667.012,63.046 667.711,64.445 669.01,65.245C670.31,66.044 671.809,66.444 673.608,66.444C674.207,66.444 674.907,66.444 675.707,66.344C676.506,66.244 677.206,66.044 677.905,65.744C678.605,65.445 679.205,65.045 679.604,64.545C680.004,64.045 680.204,63.346 680.204,62.446C680.204,61.547 679.904,60.847 679.304,60.347C678.705,59.848 678.005,59.348 677.106,59.048C676.206,58.748 675.207,58.449 674.008,58.249C672.808,58.049 671.709,57.749 670.51,57.449C669.31,57.149 668.111,56.85 666.912,56.45C665.812,56.05 664.713,55.55 663.814,54.851C662.914,54.151 662.214,53.352 661.615,52.352C661.115,51.353 660.815,50.053 660.815,48.554C660.815,46.955 661.215,45.556 662.015,44.457C662.814,43.357 663.814,42.458 665.013,41.758C666.212,41.059 667.611,40.559 669.11,40.359C670.61,40.059 672.009,39.959 673.408,39.959C675.007,39.959 676.406,40.159 677.905,40.459C679.304,40.759 680.604,41.359 681.703,42.058C682.802,42.758 683.802,43.757 684.601,44.956C685.401,46.156 685.801,47.555 686.001,49.254L679.105,49.254C678.805,47.655 678.105,46.555 676.906,46.056C675.807,45.556 674.407,45.256 673.008,45.256C672.508,45.256 672.009,45.256 671.309,45.356C670.709,45.456 670.11,45.556 669.51,45.756C668.911,45.956 668.511,46.256 668.111,46.655C667.711,47.055 667.511,47.555 667.511,48.255C667.511,49.054 667.811,49.754 668.311,50.253C668.911,50.753 669.61,51.153 670.51,51.553C671.409,51.852 672.408,52.152 673.608,52.352C674.807,52.552 676.006,52.852 677.206,53.152C678.405,53.451 679.604,53.751 680.804,54.151C682.003,54.551 683.002,55.051 683.902,55.75C684.801,56.45 685.501,57.249 686.101,58.249C686.7,59.248 686.9,60.547 686.9,61.947C686.9,63.745 686.5,65.245 685.701,66.444C684.901,67.643 683.802,68.743 682.503,69.442C681.203,70.242 679.804,70.741 678.205,71.141C676.606,71.441 675.007,71.641 673.508,71.641C671.609,71.641 669.81,71.441 668.211,71.041C666.612,70.641 665.213,69.942 664.013,69.142C662.814,68.243 661.915,67.144 661.215,65.844C660.515,64.545 660.216,63.046 660.116,61.247L666.812,61.247L666.812,61.147Z" style="fill:white;fill-rule:nonzero;"/>
    </g>
</svg>
